<?xml version="1.0" standalone="no"?>
<!DOCTYPE svg PUBLIC "-//W3C//DTD SVG 20010904//EN"
 "http://www.w3.org/TR/2001/REC-SVG-20010904/DTD/svg10.dtd">
<svg version="1.0" xmlns="http://www.w3.org/2000/svg"
 width="512.000000pt" height="512.000000pt" viewBox="0 0 512.000000 512.000000"
 preserveAspectRatio="xMidYMid meet">
<metadata>
Created by potrace 1.11, written by Peter Selinger 2001-2013
</metadata>
<g transform="translate(0.000000,512.000000) scale(0.100000,-0.100000)"
fill="#000000" stroke="none">
<path d="M1232 4985 c-43 -31 -57 -110 -57 -330 l0 -200 36 -93 36 -92 -24
-53 c-22 -46 -23 -56 -13 -92 7 -22 13 -103 14 -180 3 -170 37 -323 96 -432
l36 -68 -43 -88 c-46 -93 -53 -123 -28 -113 19 7 19 5 -4 -96 -10 -46 -22
-104 -25 -130 -5 -43 -4 -48 14 -48 17 0 19 -5 14 -44 -4 -25 -4 -57 0 -71 6
-22 9 -25 21 -15 13 11 15 4 15 -48 0 -55 2 -61 23 -64 14 -2 22 -10 23 -23 2
-42 4 -47 18 -42 10 4 25 -12 45 -47 32 -57 86 -123 270 -332 124 -140 199
-246 227 -321 25 -70 31 -442 10 -697 -21 -250 -39 -291 -147 -315 -80 -18
-129 -98 -105 -172 8 -26 22 -40 61 -59 28 -14 66 -35 85 -48 24 -15 51 -22
84 -22 37 0 55 -6 78 -25 18 -16 42 -25 63 -25 18 0 49 -7 68 -15 46 -19 107
-19 181 0 177 46 559 43 610 -5 41 -40 -470 -98 -773 -87 -120 4 -162 9 -236
31 -189 57 -315 146 -375 267 -58 116 -104 159 -169 159 -44 0 -88 -42 -99
-94 -24 -115 25 -257 131 -372 77 -84 149 -132 267 -178 144 -56 141 -55 91
-55 -24 -1 -42 -3 -40 -6 12 -12 140 -38 298 -60 157 -23 216 -35 167 -35 -9
0 -14 -4 -11 -10 4 -6 83 -10 203 -10 180 -1 195 -2 172 -16 -24 -14 -22 -15
35 -9 33 4 89 13 125 20 36 7 85 16 110 19 l45 6 -25 -19 c-14 -11 -23 -22
-20 -24 3 -3 41 6 85 19 171 51 330 94 339 91 5 -2 -7 -14 -28 -26 -20 -13
-35 -25 -33 -27 8 -8 143 39 212 74 39 19 122 58 185 86 112 50 211 110 278
168 42 36 53 35 46 -4 -5 -32 -3 -30 61 37 36 39 96 115 133 170 138 203 171
350 118 517 -14 46 -30 89 -35 97 -5 8 -3 31 6 60 32 106 45 240 33 351 -11
107 -46 270 -74 348 -15 42 -15 43 5 37 17 -6 19 -3 13 22 -22 97 -137 322
-266 519 -56 87 -78 128 -69 133 8 5 -6 20 -40 44 -69 48 -147 123 -240 233
-55 64 -94 100 -136 123 l-58 32 43 -6 c23 -4 42 -4 42 -1 0 15 -154 105 -221
130 -142 53 -305 88 -441 95 -117 6 -129 9 -154 31 -76 71 -128 192 -143 330
-13 121 -4 166 43 223 41 50 44 66 25 114 -12 28 -10 41 19 125 40 117 51 186
59 368 9 219 -16 300 -94 300 -61 0 -102 -28 -221 -149 -64 -65 -141 -137
-170 -160 -53 -41 -98 -53 -107 -28 -3 6 -22 12 -43 12 -20 0 -41 2 -47 5 -14
6 -254 6 -250 0 2 -3 0 -11 -4 -18 -5 -8 -46 46 -113 146 -59 87 -127 177
-153 201 -73 67 -138 87 -183 56z m1138 -3787 c49 -58 60 -79 58 -102 -3 -33
-1 -32 -119 -37 l-84 -4 -3 35 c-4 41 15 150 30 168 24 29 56 13 118 -60z"/>
</g>
</svg>
